<svg xmlns="http://www.w3.org/2000/svg" viewBox="0 0 240 190" role="img" aria-label="Natural kawaii bird companion">
  <defs>
    <radialGradient id="body" cx="38%" cy="28%" r="78%">
      <stop offset="0" stop-color="#ffd58a"/>
      <stop offset="0.45" stop-color="#f08a43"/>
      <stop offset="0.78" stop-color="#8d6a5f"/>
      <stop offset="1" stop-color="#2e5f73"/>
    </radialGradient>
    <linearGradient id="belly" x1="76" x2="168" y1="82" y2="150" gradientUnits="userSpaceOnUse">
      <stop offset="0" stop-color="#fff1c4"/>
      <stop offset="1" stop-color="#f4aa63"/>
    </linearGradient>
    <linearGradient id="wing" x1="74" x2="166" y1="82" y2="137" gradientUnits="userSpaceOnUse">
      <stop offset="0" stop-color="#153a56"/>
      <stop offset="0.62" stop-color="#236e86"/>
      <stop offset="1" stop-color="#3f93a8"/>
    </linearGradient>
    <linearGradient id="tail" x1="24" x2="78" y1="126" y2="101" gradientUnits="userSpaceOnUse">
      <stop offset="0" stop-color="#143449"/>
      <stop offset="1" stop-color="#287c94"/>
    </linearGradient>
    <filter id="softShadow" x="-20%" y="-20%" width="140%" height="150%">
      <feDropShadow dx="0" dy="9" stdDeviation="7" flood-color="#21180f" flood-opacity="0.23"/>
    </filter>
  </defs>

  <g filter="url(#softShadow)">
    <path d="M183 77c18 4 32 13 42 27-17 2-32-2-45-12z" fill="#f36f38"/>
    <path d="M55 127c-18 10-34 12-49 7 13-14 29-23 48-27z" fill="url(#tail)"/>
    <path d="M45 91c0-43 33-75 79-75 45 0 82 29 82 72 0 49-38 79-86 79-45 0-75-29-75-76z" fill="url(#body)"/>
    <path d="M71 104c12-24 45-37 88-28-6 34-32 58-73 68-14-10-19-24-15-40z" fill="url(#wing)"/>
    <path d="M90 66c-11 19-12 45-2 66-21-9-34-25-35-47 0-17 15-27 37-19z" fill="url(#belly)" opacity="0.2"/>
    <path d="M128 33c10-20 28-31 53-31-7 21-24 35-48 42z" fill="#79ad58"/>
    <path d="M132 34c7-10 18-17 32-21-5 12-15 20-29 26z" fill="#93c36d" opacity="0.72"/>
    <circle cx="163" cy="58" r="11" fill="#16120d"/>
    <circle cx="167" cy="54" r="3.4" fill="#fff9e8"/>
    <circle cx="157" cy="75" r="6" fill="#f6a178" opacity="0.5"/>
    <path d="M123 164c-2 13-9 22-17 26m29-26c3 12 10 20 19 25" fill="none" stroke="#3b2c20" stroke-linecap="round" stroke-width="7"/>
    <path d="M105 189c9-1 15-3 20-8m28 8c-8 0-15-3-20-8" fill="none" stroke="#3b2c20" stroke-linecap="round" stroke-width="4"/>
  </g>
</svg>
